<svg version="1.1" xmlns="http://www.w3.org/2000/svg" viewBox="0 0 560 940" width="560" height="940">
  <!-- svg-source:excalidraw -->
  
  <defs>
    <style class="style-fonts">
      @font-face {
        font-family: "Virgil";
        src: url("https://excalidraw.com/Virgil.woff2");
      }
      @font-face {
        font-family: "Cascadia";
        src: url("https://excalidraw.com/Cascadia.woff2");
      }
    </style>
    
  </defs>
  <rect x="0" y="0" width="560" height="940" fill="#ffffff"></rect><g stroke-linecap="round" transform="translate(10 10) rotate(0 120 30)"><path d="M3.99 3.47 C3.99 3.47, 3.99 3.47, 3.99 3.47 M3.99 3.47 C3.99 3.47, 3.99 3.47, 3.99 3.47 M2.81 17.02 C11.47 13.92, 10.69 6.36, 16.59 1.17 M2.81 17.02 C7.82 11.7, 10.01 7.32, 16.59 1.17 M2.95 29.06 C7.94 22.28, 16.07 11.78, 27.22 1.14 M2.95 29.06 C9.28 20.07, 21.22 7.45, 27.22 1.14 M3.08 41.1 C12.38 34.3, 15.47 19.67, 37.85 1.1 M3.08 41.1 C12.81 31.39, 20.14 21.31, 37.85 1.1 M3.21 53.14 C10.35 41.48, 26.92 28.13, 48.48 1.07 M3.21 53.14 C20.52 33.5, 38.63 13.42, 48.48 1.07 M7.94 59.9 C22.59 44.92, 39.88 28.27, 59.11 1.03 M7.94 59.9 C21.73 43.37, 38.77 23.55, 59.11 1.03 M15.29 63.64 C33.49 41.13, 47.93 22.96, 69.74 1 M15.29 63.64 C28.24 45.49, 42.61 28.58, 69.74 1 M25.92 63.61 C35.96 47.05, 49.75 31.19, 79.72 1.72 M25.92 63.61 C46.39 38, 68.8 14.07, 79.72 1.72 M36.55 63.57 C52.55 45.49, 77.45 22.68, 90.35 1.69 M36.55 63.57 C46.24 51.13, 56.84 40.71, 90.35 1.69 M47.18 63.54 C62.28 48.52, 70.89 34.98, 100.98 1.65 M47.18 63.54 C65.87 39.44, 89.67 17.3, 100.98 1.65 M57.81 63.5 C75.23 44.57, 93.57 22.42, 111.61 1.62 M57.81 63.5 C79.07 39.98, 96.65 18.4, 111.61 1.62 M68.44 63.47 C88.64 42.04, 103.66 26.18, 122.24 1.58 M68.44 63.47 C77.74 50.45, 91.27 36.23, 122.24 1.58 M79.07 63.43 C88.01 48.1, 105.03 33.85, 132.87 1.55 M79.07 63.43 C89.65 51.66, 102.11 36.78, 132.87 1.55 M89.7 63.4 C109.83 42.91, 135.26 12.77, 143.5 1.51 M89.7 63.4 C108.08 37.09, 132.87 15.39, 143.5 1.51 M100.33 63.36 C109.21 48.16, 122.04 39.91, 154.13 1.48 M100.33 63.36 C119.74 42.02, 138.23 19.2, 154.13 1.48 M110.96 63.33 C127.41 42.66, 142.34 28.45, 164.76 1.44 M110.96 63.33 C130.05 43.94, 145.61 26.53, 164.76 1.44 M121.59 63.3 C142.94 41.35, 163.26 13.59, 175.39 1.41 M121.59 63.3 C138.75 46.02, 154.45 24.83, 175.39 1.41 M132.22 63.26 C145.32 47.34, 156.08 34.25, 186.02 1.37 M132.22 63.26 C150.82 40.35, 169.78 22.76, 186.02 1.37 M142.85 63.23 C160.43 46.2, 172.82 28.51, 196.65 1.34 M142.85 63.23 C162.75 41.62, 179.24 20.79, 196.65 1.34 M153.48 63.19 C177.33 39.8, 200.16 17.57, 207.28 1.31 M153.48 63.19 C171.37 43.82, 184.54 28.88, 207.28 1.31 M164.11 63.16 C172.77 52.88, 184.42 33.95, 217.91 1.27 M164.11 63.16 C187.45 38.23, 208.55 12.88, 217.91 1.27 M174.74 63.12 C191.58 36.25, 211.23 13.56, 229.19 0.48 M174.74 63.12 C183.78 51.84, 196.39 39.66, 229.19 0.48 M184.71 63.84 C207.49 39.47, 222.15 17.49, 236.54 4.22 M184.71 63.84 C195.43 49.85, 207.37 38.75, 236.54 4.22 M195.34 63.81 C204.91 47.32, 218.32 35.95, 241.27 10.98 M195.34 63.81 C211.73 44.51, 224.32 30.24, 241.27 10.98 M205.97 63.77 C209.84 53.26, 222.57 47.94, 242.06 22.27 M205.97 63.77 C217.17 50.53, 232.02 34.79, 242.06 22.27 M216.6 63.74 C222.35 54.52, 231.97 43.83, 242.19 34.31 M216.6 63.74 C226.06 51.33, 235.83 40.38, 242.19 34.31 M227.89 62.95 C234.01 54.86, 234.92 54.67, 240.36 48.61 M227.89 62.95 C232.92 60, 233.93 53.55, 240.36 48.61" stroke="#b2f2bb" stroke-width="1" fill="none"></path><path d="M15 0 M15 0 C64.77 -2.21, 112.16 -4.43, 225 0 M15 0 C74.77 4.17, 132.75 3.35, 225 0 M225 0 C237 1.48, 237.5 2.42, 240 15 M225 0 C237.98 -1.78, 239.73 7.43, 240 15 M240 15 C242.41 23.2, 238.87 29.3, 240 45 M240 15 C238.97 23.66, 241.04 36.23, 240 45 M240 45 C242.96 56.24, 231.97 60.94, 225 60 M240 45 C237.69 52.31, 238.82 63.6, 225 60 M225 60 C175.86 60.81, 131.74 55.78, 15 60 M225 60 C156.38 63.35, 89.07 62.68, 15 60 M15 60 C2.32 59.5, -1.94 55.52, 0 45 M15 60 C5.19 60.63, 2 54.43, 0 45 M0 45 C0.15 37.97, 3.06 23.29, 0 15 M0 45 C0.99 32.56, 1.86 21.72, 0 15 M0 15 C-2.96 5.86, 6.06 1.44, 15 0 M0 15 C4.27 3.95, 2.64 4.5, 15 0" stroke="#1e1e1e" stroke-width="2" fill="none"></path></g><g transform="translate(48.44999694824219 27.5) rotate(0 81.55000305175781 12.5)"><text x="81.55000305175781" y="0" font-family="Virgil, Segoe UI Emoji" font-size="20px" fill="#1e1e1e" text-anchor="middle" style="white-space: pre;" direction="ltr" dominant-baseline="text-before-edge">CALLDATALOAD</text></g><g stroke-linecap="round" transform="translate(10 110) rotate(0 120 40)"><path d="M7.55 41.01 C7.55 41.01, 7.55 41.01, 7.55 41.01 M7.55 41.01 C7.55 41.01, 7.55 41.01, 7.55 41.01 M14.9 44.75 C15.56 43.89, 19.04 39.23, 22.77 35.7 M14.9 44.75 C18.26 41.2, 19.62 38.88, 22.77 35.7 M22.91 47.74 C28.26 43.92, 26.06 37.39, 37.34 31.13 M22.91 47.74 C26.1 43.22, 32.57 35.16, 37.34 31.13 M30.26 51.48 C33.48 47.87, 42.81 41.23, 51.91 26.57 M30.26 51.48 C38.01 45.95, 40.68 36.35, 51.91 26.57 M38.92 53.71 C46.33 45.7, 48.48 37.48, 67.13 21.25 M38.92 53.71 C49 44.16, 55.35 35.23, 67.13 21.25 M46.92 56.69 C56.9 44.45, 68.17 38.73, 81.69 16.69 M46.92 56.69 C54.7 46.83, 68 33.05, 81.69 16.69 M55.59 58.92 C66.42 41.69, 83.83 22.4, 96.92 11.37 M55.59 58.92 C64.45 47.17, 76.55 33.59, 96.92 11.37 M63.59 61.9 C82.95 43.54, 92.16 24.14, 111.48 6.81 M63.59 61.9 C82.02 44.2, 98.97 20.49, 111.48 6.81 M72.25 64.13 C79.73 49.91, 94.16 33.42, 120.8 8.29 M72.25 64.13 C84.53 50.03, 94.72 37.74, 120.8 8.29 M80.26 67.12 C99.48 45.9, 117.56 24.76, 132.09 7.5 M80.26 67.12 C91.07 53.34, 101.85 43.64, 132.09 7.5 M88.92 69.35 C107.04 52.36, 115.48 35.04, 140.75 9.73 M88.92 69.35 C107.1 48, 124.7 28.59, 140.75 9.73 M96.93 72.33 C113.63 52.72, 138.93 29.92, 148.76 12.71 M96.93 72.33 C110.85 55.82, 124.76 41.39, 148.76 12.71 M105.59 74.56 C116.25 58.12, 128.99 48.75, 156.76 15.69 M105.59 74.56 C125.49 52.48, 141.94 33.45, 156.76 15.69 M112.28 79.06 C129.63 62.37, 140.2 50.99, 165.42 17.92 M112.28 79.06 C128.33 56.34, 146.89 39.38, 165.42 17.92 M122.91 79.02 C131.41 60.85, 145.91 47.43, 173.43 20.91 M122.91 79.02 C143.7 58.8, 160.65 40.48, 173.43 20.91 M137.48 74.46 C151.97 59.9, 162.66 42.38, 181.44 23.89 M137.48 74.46 C145.83 66.21, 156.63 52.9, 181.44 23.89 M152.05 69.9 C167.34 51.86, 177.69 42.38, 189.44 26.88 M152.05 69.9 C159.38 61.27, 169.36 50.43, 189.44 26.88 M166.61 65.33 C172.54 59.85, 179.76 46.72, 197.45 29.86 M166.61 65.33 C176.64 56.18, 182.61 46.43, 197.45 29.86 M181.18 60.77 C183.11 56.24, 190.06 45.44, 206.11 32.09 M181.18 60.77 C188.57 55.11, 191.5 44.78, 206.11 32.09 M195.74 56.21 C202.16 51.07, 206.64 38.78, 214.11 35.08 M195.74 56.21 C202.53 50.64, 204.09 44.37, 214.11 35.08 M210.31 51.64 C215.74 49.86, 220.38 45.81, 224.09 35.8 M210.31 51.64 C213.07 46.38, 217.65 45.87, 224.09 35.8 M226.85 44.82 C227.63 43.21, 231.11 41.41, 231.44 39.53 M226.85 44.82 C228.14 43.42, 229.14 41.69, 231.44 39.53" stroke="#ffffff" stroke-width="1" fill="none"></path><path d="M151.25 10.25 M151.25 10.25 C175.5 19.18, 193.65 23.06, 209.75 30.75 M151.25 10.25 C173.49 17.77, 194.03 23.53, 209.75 30.75 M209.75 30.75 C242.33 40.23, 238.79 37.36, 209.75 51.25 M209.75 30.75 C241.94 37.06, 241.59 39.81, 209.75 51.25 M209.75 51.25 C200.15 56.96, 181.31 60.72, 151.25 69.75 M209.75 51.25 C196.48 55.19, 181.12 60.61, 151.25 69.75 M151.25 69.75 C117.07 82.72, 118.82 77.02, 90.75 69.75 M151.25 69.75 C122 83.09, 125.35 77.29, 90.75 69.75 M90.75 69.75 C70.61 63.3, 53.74 58.93, 30.25 51.25 M90.75 69.75 C72.05 65.32, 55.84 58.99, 30.25 51.25 M30.25 51.25 C0.73 43.97, 3.64 39.29, 30.25 30.75 M30.25 51.25 C3.21 38.94, 3.34 42.67, 30.25 30.75 M30.25 30.75 C41.02 27.51, 59.09 23.32, 90.75 10.25 M30.25 30.75 C56.07 22.87, 79.18 14.76, 90.75 10.25 M90.75 10.25 C117.35 -0.13, 119.98 0.37, 151.25 10.25 M90.75 10.25 C124.28 -2.73, 122 -3.24, 151.25 10.25" stroke="#1e1e1e" stroke-width="2" fill="none"></path></g><g transform="translate(125.34166669845581 137.5) rotate(0 4.6583333015441895 12.5)"><text x="4.6583333015441895" y="0" font-family="Virgil, Segoe UI Emoji" font-size="20px" fill="#1e1e1e" text-anchor="middle" style="white-space: pre;" direction="ltr" dominant-baseline="text-before-edge">?</text></g><g stroke-linecap="round" transform="translate(330 130) rotate(0 110 30)"><path d="M0 0 C0 0, 0 0, 0 0 M0 0 C0 0, 0 0, 0 0 M-2.53 13.44 C4.74 9.25, 2.62 7.69, 10.96 1.67 M-0.25 11.38 C3.22 8.58, 4.01 6.2, 12.12 -0.74 M4.12 27.36 C6.22 12.75, 15.12 11.3, 18.62 -1.4 M-0.25 22.24 C9.61 13.97, 14.32 8.48, 20.8 0.7 M-2.84 39.66 C12.06 22.36, 21.9 3.38, 27.95 -3.14 M-0.99 37.86 C6.48 31, 13.28 20.97, 31.86 1.42 M-3.65 50.98 C9.01 38.61, 16.95 28.97, 42.2 -0.39 M-0.57 47.19 C16.47 33.19, 31.08 13.3, 43.8 -2.13 M2.35 58.55 C7.02 46.59, 23.02 37.52, 56.11 3.04 M0.4 61.62 C12.44 48.15, 22.29 33.25, 52.51 0.49 M8.57 58.49 C19.11 45.03, 31.75 36.76, 65.95 2.75 M12.23 59.75 C29.1 40.41, 50.59 19.28, 62.57 -1.53 M22.96 60.24 C33.31 43.03, 45.51 32.2, 71.58 -0.19 M22.93 60.87 C42.19 35.03, 65.06 12.17, 74.3 0.81 M34.89 59.34 C46.88 39.33, 65.46 21.5, 86.42 -1.31 M34.04 60.72 C41.64 46.94, 53.68 32.04, 86.7 1.29 M39.26 62.78 C51.92 44.4, 66.39 36.94, 99.45 -2.66 M41.84 59.82 C58.02 43.23, 74.36 25.67, 96.54 -0.56 M53.89 63.76 C73.33 38.72, 90.2 18.25, 109.21 1.1 M51.68 61.22 C65.06 47.88, 78.74 32.51, 105.27 1.61 M60.14 60.62 C76.57 44.61, 95.01 25.09, 117.14 -2.45 M63.58 60.49 C81.37 40.69, 97.3 24.93, 117.43 -1.33 M72.96 59.42 C91.62 45.33, 104.18 24.16, 124.23 -0.58 M75.31 59.26 C89.46 43.93, 107.5 26.58, 126.22 -0.01 M81.51 60.91 C103.86 44.32, 119.8 22.36, 137.05 -0.88 M84.03 59.18 C98.82 46.15, 112 30.63, 136.61 -0.99 M98.52 59.25 C107.9 46.46, 118.62 29.53, 148.38 3.79 M96.61 59.66 C112.06 41.84, 131.09 19.66, 146.94 -0.8 M106.29 64.07 C127.88 37.27, 143.86 12.93, 162.58 1.97 M104.63 58.92 C127.55 35.19, 149.43 14.66, 159.26 -0.22 M114.65 58.42 C131.69 44.84, 140.43 30.51, 165.57 1.65 M115.4 58.94 C132.16 43.25, 147.34 27.2, 170.35 0.78 M131.05 60.79 C145.1 38.99, 160.84 24.4, 182.83 -3.74 M126.96 62.5 C146.16 37.58, 163.84 17.8, 178.72 0 M138.44 59.1 C148.78 45.29, 165.17 30.69, 193.39 2.67 M139.04 62.15 C155.19 40.04, 176.25 17.16, 191.56 2.03 M145.37 56.73 C165.12 37.82, 181.23 18.53, 203.87 3.18 M148.11 61.22 C161.77 47.78, 172.3 31.84, 199.81 -0.78 M155.95 62.47 C178.83 37.54, 199.5 16.02, 210.42 -0.48 M158.35 58.82 C175.47 43.02, 190.98 23.04, 213.14 0.73 M171.83 56.56 C187.67 45.33, 198.99 30.32, 223.46 4.39 M168.66 58.86 C191.05 39.23, 208.75 18.58, 221.58 2.99 M178.26 60.69 C189.3 46.15, 204.22 36.71, 224.41 13.46 M179.66 59 C189.11 50.58, 199.76 39.29, 221.36 12.76 M194.02 63.96 C199.31 55.54, 203.13 42.62, 223.32 24.22 M192.7 59.71 C200.29 51.8, 207.73 41.94, 221.48 24.96 M201.46 60.94 C209.08 51.77, 212.73 50.64, 218.58 40.15 M200.83 61.22 C209.51 51.98, 212.32 45.19, 220.45 37.88 M212.53 58.4 C216.29 57.78, 219.96 51.08, 223.48 50.03 M212.06 60.47 C215.73 58, 218.78 52.63, 222.31 51" stroke="#ff8787" stroke-width="1" fill="none"></path><path d="M1.11 0.96 C53.04 -6.68, 105.74 -3.21, 220.47 -1.31 M1.18 -0.81 C81.07 2.22, 164.4 0.91, 221.38 1.08 M216.41 3.53 C223.8 14.85, 222.08 35.96, 219.53 57.04 M219.33 0.71 C219.21 15.07, 220.6 33.04, 219.68 60.8 M219.86 56.95 C143.74 65.66, 72.11 60.38, 3.35 62.78 M221.28 61.6 C137.14 58.34, 56.93 57.23, -1.27 59.94 M0.86 58.55 C1.82 36.37, 0.95 18.88, 0.93 -1.45 M-0.1 60.17 C-0.13 39.73, 2.81 19.22, 0.71 1.38" stroke="#1e1e1e" stroke-width="2" fill="none"></path></g><g transform="translate(399.7416648864746 147.5) rotate(0 40.25833511352539 12.5)"><text x="40.25833511352539" y="0" font-family="Virgil, Segoe UI Emoji" font-size="20px" fill="#1e1e1e" text-anchor="middle" style="white-space: pre;" direction="ltr" dominant-baseline="text-before-edge">REVERT</text></g><g stroke-linecap="round" transform="translate(10 230) rotate(0 120 60)"><path d="M8.94 58.12 C8.94 58.12, 8.94 58.12, 8.94 58.12 M8.94 58.12 C8.94 58.12, 8.94 58.12, 8.94 58.12 M12.36 66.39 C14.94 61.67, 16.94 63.94, 23.51 53.56 M12.36 66.39 C17.05 62.88, 17.54 59.08, 23.51 53.56 M19.05 70.89 C27.27 59.64, 34.6 52.87, 42.01 44.47 M19.05 70.89 C26.27 62.33, 37.81 52.21, 42.01 44.47 M26.4 74.62 C36.47 62.09, 46.17 54.09, 60.51 35.38 M26.4 74.62 C33.49 64.16, 41.71 57.35, 60.51 35.38 M33.09 79.12 C51.85 58.77, 64.8 43.65, 79.02 26.29 M33.09 79.12 C46.73 65.34, 56.86 54.08, 79.02 26.29 M41.1 82.1 C57.65 56.66, 78.13 41.9, 96.86 17.95 M41.1 82.1 C52.72 64.38, 67.11 49.46, 96.86 17.95 M48.45 85.84 C77.98 57.98, 100.4 34.52, 117.34 6.6 M48.45 85.84 C68.19 63.59, 87.07 39.26, 117.34 6.6 M55.8 89.58 C68.94 76.55, 87.35 53.62, 128.62 5.81 M55.8 89.58 C81.75 58.07, 105.83 31.58, 128.62 5.81 M63.15 93.32 C77.35 76.58, 96.82 55.44, 135.97 9.55 M63.15 93.32 C77.61 76.43, 93.6 55.64, 135.97 9.55 M70.5 97.06 C94.06 74.8, 109.28 51.51, 143.98 12.53 M70.5 97.06 C85.02 79.59, 100.73 60.11, 143.98 12.53 M78.5 100.04 C98.89 81.85, 110.6 54.47, 151.98 15.52 M78.5 100.04 C106.45 68.33, 133.23 33.95, 151.98 15.52 M85.85 103.78 C108.99 81.98, 121.96 58.12, 159.33 19.25 M85.85 103.78 C106.25 83.81, 125.26 62.59, 159.33 19.25 M93.2 107.52 C109.29 84.85, 128.65 72.11, 166.68 22.99 M93.2 107.52 C119.51 78.2, 148.74 47.73, 166.68 22.99 M100.55 111.26 C122.22 87.6, 142.03 61.5, 173.38 27.49 M100.55 111.26 C131.41 78.96, 157.35 44.49, 173.38 27.49 M108.56 114.24 C137.64 84, 162.37 50.27, 180.73 31.23 M108.56 114.24 C132.92 85.78, 158.88 55.88, 180.73 31.23 M116.57 117.23 C138.89 96.53, 158.34 67.98, 188.08 34.97 M116.57 117.23 C142.18 93.02, 162 65.67, 188.08 34.97 M125.23 119.46 C142.69 94.75, 163.81 79.64, 195.43 38.7 M125.23 119.46 C153 86.8, 180.22 55.62, 195.43 38.7 M143.07 111.12 C158.46 95.54, 172.43 77.86, 202.78 42.44 M143.07 111.12 C168.29 85.45, 189.67 57.74, 202.78 42.44 M161.58 102.03 C170.45 90.62, 183.35 70.22, 210.13 46.18 M161.58 102.03 C178.75 83.27, 191.47 67.74, 210.13 46.18 M180.08 92.94 C186.26 81.04, 199.28 69.6, 217.48 49.92 M180.08 92.94 C193.06 77.07, 207.87 59.77, 217.48 49.92 M198.58 83.85 C202.81 75.59, 216.68 68.46, 224.82 53.66 M198.58 83.85 C202.35 76.81, 209.09 71.14, 224.82 53.66 M219.71 71.74 C221.96 65.81, 228.47 58.27, 231.52 58.15 M219.71 71.74 C221.08 68.87, 226.28 65.96, 231.52 58.15" stroke="#ffffff" stroke-width="1" fill="none"></path><path d="M151.25 15.25 M151.25 15.25 C167.31 26.08, 178.7 31.62, 209.75 45.75 M151.25 15.25 C173.21 25.57, 194.87 36.58, 209.75 45.75 M209.75 45.75 C241.03 59.86, 237.96 57.99, 209.75 76.25 M209.75 45.75 C240.12 64.02, 238.13 65.46, 209.75 76.25 M209.75 76.25 C197.01 86.47, 182.54 88.5, 151.25 104.75 M209.75 76.25 C189.86 85.39, 173.93 94.98, 151.25 104.75 M151.25 104.75 C117.62 122.58, 122.85 118.02, 90.75 104.75 M151.25 104.75 C117 123.55, 121.41 117.79, 90.75 104.75 M90.75 104.75 C78.44 97.59, 62.16 95.42, 30.25 76.25 M90.75 104.75 C66.66 95.93, 46.89 85.32, 30.25 76.25 M30.25 76.25 C-2.06 61.23, -3.37 57.61, 30.25 45.75 M30.25 76.25 C-0.09 57.31, 2.72 64.76, 30.25 45.75 M30.25 45.75 C51.79 35.37, 67.21 24.77, 90.75 15.25 M30.25 45.75 C52.4 31.97, 78.03 21.84, 90.75 15.25 M90.75 15.25 C122.3 1.1, 117.92 -3.28, 151.25 15.25 M90.75 15.25 C122.43 0.46, 122.87 3.22, 151.25 15.25" stroke="#1e1e1e" stroke-width="2" fill="none"></path></g><g transform="translate(77.84166717529297 265) rotate(0 52.15833282470703 25)"><text x="52.15833282470703" y="0" font-family="Virgil, Segoe UI Emoji" font-size="20px" fill="#1e1e1e" text-anchor="middle" style="white-space: pre;" direction="ltr" dominant-baseline="text-before-edge">if/else </text><text x="52.15833282470703" y="25" font-family="Virgil, Segoe UI Emoji" font-size="20px" fill="#1e1e1e" text-anchor="middle" style="white-space: pre;" direction="ltr" dominant-baseline="text-before-edge">20965255</text></g><g stroke-linecap="round" transform="translate(10 390) rotate(0 120 60)"><path d="M8.94 58.12 C8.94 58.12, 8.94 58.12, 8.94 58.12 M8.94 58.12 C8.94 58.12, 8.94 58.12, 8.94 58.12 M12.36 66.39 C12.04 64.84, 19.9 60.37, 23.51 53.56 M12.36 66.39 C15.67 62.01, 18.61 61.26, 23.51 53.56 M19.05 70.89 C23.62 62.24, 30.45 59.73, 42.01 44.47 M19.05 70.89 C25.38 65.81, 32.3 56.84, 42.01 44.47 M26.4 74.62 C30.82 64.32, 43.6 53.48, 60.51 35.38 M26.4 74.62 C34.67 65.69, 38.55 61.15, 60.51 35.38 M33.09 79.12 C44.95 67.46, 55.55 51.74, 79.02 26.29 M33.09 79.12 C44.29 62.81, 57.69 47.65, 79.02 26.29 M41.1 82.1 C65.25 59.31, 87.87 34.91, 96.86 17.95 M41.1 82.1 C53.1 65.37, 66.28 48.99, 96.86 17.95 M48.45 85.84 C69.78 60.38, 97.06 29.63, 117.34 6.6 M48.45 85.84 C72.17 57.32, 98.55 31.95, 117.34 6.6 M55.8 89.58 C79.47 54.77, 113.34 24.77, 128.62 5.81 M55.8 89.58 C80.35 63.05, 106.95 34.98, 128.62 5.81 M63.15 93.32 C95.59 62.11, 122.84 30.13, 135.97 9.55 M63.15 93.32 C91.5 62.55, 117.98 32.08, 135.97 9.55 M70.5 97.06 C90.84 70.71, 113.65 50.74, 143.98 12.53 M70.5 97.06 C93.7 65.62, 122.23 36.01, 143.98 12.53 M78.5 100.04 C96.16 78.09, 107.12 59.29, 151.98 15.52 M78.5 100.04 C100.85 72.5, 122.94 45.64, 151.98 15.52 M85.85 103.78 C114.06 72.76, 135.73 51.65, 159.33 19.25 M85.85 103.78 C112.96 75.48, 136.3 48.83, 159.33 19.25 M93.2 107.52 C117.28 82.77, 135.7 54.64, 166.68 22.99 M93.2 107.52 C119.28 76.48, 146.49 49.86, 166.68 22.99 M100.55 111.26 C128.22 79.02, 152.18 53, 173.38 27.49 M100.55 111.26 C128.62 77.01, 158.38 46.2, 173.38 27.49 M108.56 114.24 C128.25 92.2, 140.39 74.09, 180.73 31.23 M108.56 114.24 C127 93.63, 146.35 72.6, 180.73 31.23 M116.57 117.23 C145.22 88.43, 166.63 63.2, 188.08 34.97 M116.57 117.23 C144.33 85.52, 173.91 50.56, 188.08 34.97 M125.23 119.46 C153.63 90.89, 180.87 62.88, 195.43 38.7 M125.23 119.46 C145.07 97, 164.47 71.49, 195.43 38.7 M143.07 111.12 C163.98 88.26, 179.71 67.44, 202.78 42.44 M143.07 111.12 C161.89 90, 181.64 67.04, 202.78 42.44 M161.58 102.03 C172.79 84.43, 190.3 62.48, 210.13 46.18 M161.58 102.03 C176.16 85.3, 187.95 71.23, 210.13 46.18 M180.08 92.94 C187.84 83.5, 197.95 66.99, 217.48 49.92 M180.08 92.94 C190.33 79.2, 202.61 66.65, 217.48 49.92 M198.58 83.85 C211.79 75.46, 221.41 60.77, 224.82 53.66 M198.58 83.85 C206.83 74.76, 212.85 65.14, 224.82 53.66 M219.71 71.74 C226.59 66.06, 224.35 61.11, 231.52 58.15 M219.71 71.74 C223.09 67.05, 228.32 61.52, 231.52 58.15" stroke="#ffffff" stroke-width="1" fill="none"></path><path d="M151.25 15.25 M151.25 15.25 C166.49 18.23, 182.21 30.85, 209.75 45.75 M151.25 15.25 C165.56 21.03, 178.8 28.55, 209.75 45.75 M209.75 45.75 C242.68 62.82, 238.82 60.97, 209.75 76.25 M209.75 45.75 C243.98 64.28, 238.28 60.5, 209.75 76.25 M209.75 76.25 C201.85 80.63, 186.15 85.26, 151.25 104.75 M209.75 76.25 C198.33 83.08, 185.03 87.12, 151.25 104.75 M151.25 104.75 C118.05 121.84, 119.59 117.71, 90.75 104.75 M151.25 104.75 C118.52 123.95, 118.18 120.33, 90.75 104.75 M90.75 104.75 C77.29 100.16, 65.54 89.46, 30.25 76.25 M90.75 104.75 C78.19 100.06, 65.11 93.02, 30.25 76.25 M30.25 76.25 C0.18 58.26, -0.72 64.47, 30.25 45.75 M30.25 76.25 C0.28 61.82, -3.86 61.54, 30.25 45.75 M30.25 45.75 C50.9 35.88, 69.53 26.72, 90.75 15.25 M30.25 45.75 C52.91 34.97, 77.23 21.88, 90.75 15.25 M90.75 15.25 C118.38 0.37, 117.5 0.24, 151.25 15.25 M90.75 15.25 C119.38 -1.87, 118.73 2.82, 151.25 15.25" stroke="#1e1e1e" stroke-width="2" fill="none"></path></g><g transform="translate(79.04999923706055 425) rotate(0 50.95000076293945 25)"><text x="50.95000076293945" y="0" font-family="Virgil, Segoe UI Emoji" font-size="20px" fill="#1e1e1e" text-anchor="middle" style="white-space: pre;" direction="ltr" dominant-baseline="text-before-edge">if/else </text><text x="50.95000076293945" y="25" font-family="Virgil, Segoe UI Emoji" font-size="20px" fill="#1e1e1e" text-anchor="middle" style="white-space: pre;" direction="ltr" dominant-baseline="text-before-edge">3FA4F245</text></g><g stroke-linecap="round" transform="translate(10 550) rotate(0 120 60)"><path d="M8.94 58.12 C8.94 58.12, 8.94 58.12, 8.94 58.12 M8.94 58.12 C8.94 58.12, 8.94 58.12, 8.94 58.12 M12.36 66.39 C12.42 62.33, 19.44 57.54, 23.51 53.56 M12.36 66.39 C15.65 62.64, 15.32 62.95, 23.51 53.56 M19.05 70.89 C24.75 67, 28.99 58.59, 42.01 44.47 M19.05 70.89 C23.78 61.75, 30.59 54.15, 42.01 44.47 M26.4 74.62 C41.94 61.43, 56.08 46.78, 60.51 35.38 M26.4 74.62 C33.24 64.14, 41.28 53.68, 60.51 35.38 M33.09 79.12 C46.19 63.03, 65.4 41.56, 79.02 26.29 M33.09 79.12 C48.76 59.53, 67.03 43.47, 79.02 26.29 M41.1 82.1 C58.29 54.57, 86.03 31.63, 96.86 17.95 M41.1 82.1 C59.65 62, 80.42 40.64, 96.86 17.95 M48.45 85.84 C79.31 56.29, 105.06 26.04, 117.34 6.6 M48.45 85.84 C75.23 56.77, 100.21 28.02, 117.34 6.6 M55.8 89.58 C75.94 63.45, 98.56 43.7, 128.62 5.81 M55.8 89.58 C78.78 58.42, 107.07 29.07, 128.62 5.81 M63.15 93.32 C80.67 71.54, 91.48 52.91, 135.97 9.55 M63.15 93.32 C85.3 66.02, 107.18 39.4, 135.97 9.55 M70.5 97.06 C98.71 66.04, 120.38 44.93, 143.98 12.53 M70.5 97.06 C97.61 68.76, 120.95 42.11, 143.98 12.53 M78.5 100.04 C102.58 75.3, 121 47.16, 151.98 15.52 M78.5 100.04 C104.58 69.01, 131.79 42.38, 151.98 15.52 M85.85 103.78 C113.76 71.26, 137.97 44.97, 159.33 19.25 M85.85 103.78 C114.19 69.24, 144.19 38.15, 159.33 19.25 M93.2 107.52 C113.18 85.12, 125.62 66.67, 166.68 22.99 M93.2 107.52 C112 86.53, 131.68 65.11, 166.68 22.99 M100.55 111.26 C129.66 81.93, 151.52 56.19, 173.38 27.49 M100.55 111.26 C128.84 78.95, 158.93 43.39, 173.38 27.49 M108.56 114.24 C137.73 84.84, 165.72 55.97, 180.73 31.23 M108.56 114.24 C128.97 91.12, 148.92 64.98, 180.73 31.23 M116.57 117.23 C141.05 90.32, 160.28 65.47, 188.08 34.97 M116.57 117.23 C139.14 91.98, 162.59 64.77, 188.08 34.97 M125.23 119.46 C142.96 93.7, 167.35 63.84, 195.43 38.7 M125.23 119.46 C145.67 96.15, 163.17 75.52, 195.43 38.7 M143.07 111.12 C157.05 94.99, 173.33 71.38, 202.78 42.44 M143.07 111.12 C159.84 89.4, 178.98 68.96, 202.78 42.44 M161.58 102.03 C183.49 84.13, 201.36 59.95, 210.13 46.18 M161.58 102.03 C176.39 85.71, 188.83 68.7, 210.13 46.18 M180.08 92.94 C194.71 78.38, 199.56 64.43, 217.48 49.92 M180.08 92.94 C192.09 77.29, 206.68 61.04, 217.48 49.92 M198.58 83.85 C205.94 72.69, 213.85 70.61, 224.82 53.66 M198.58 83.85 C205.86 74.92, 211.03 67.24, 224.82 53.66 M219.71 71.74 C223.9 69.94, 230.82 60.49, 231.52 58.15 M219.71 71.74 C224.15 69.27, 225.86 63.76, 231.52 58.15" stroke="#ffffff" stroke-width="1" fill="none"></path><path d="M151.25 15.25 M151.25 15.25 C160.15 24.22, 179.26 29.37, 209.75 45.75 M151.25 15.25 C166.31 22.02, 182.14 33.33, 209.75 45.75 M209.75 45.75 C237.55 61.29, 236.88 57.15, 209.75 76.25 M209.75 45.75 C241.66 60.34, 241.49 62.27, 209.75 76.25 M209.75 76.25 C196.63 84.6, 185.98 91.19, 151.25 104.75 M209.75 76.25 C190.17 86.56, 171.42 94.55, 151.25 104.75 M151.25 104.75 C117.64 120.47, 121.45 122.78, 90.75 104.75 M151.25 104.75 C116.51 122.58, 119.2 122.35, 90.75 104.75 M90.75 104.75 C72.04 93.55, 59.19 86.37, 30.25 76.25 M90.75 104.75 C71.72 96.67, 55.12 87.42, 30.25 76.25 M30.25 76.25 C-1.97 63.45, -2.41 63.71, 30.25 45.75 M30.25 76.25 C2.92 63.22, -1.7 58.11, 30.25 45.75 M30.25 45.75 C50.24 38.45, 67.22 27.69, 90.75 15.25 M30.25 45.75 C53.58 31.07, 75.92 20.58, 90.75 15.25 M90.75 15.25 C118.38 -1.84, 119.3 2.55, 151.25 15.25 M90.75 15.25 C124.54 -2.56, 123.51 -3, 151.25 15.25" stroke="#1e1e1e" stroke-width="2" fill="none"></path></g><g transform="translate(83.75833511352539 585) rotate(0 46.24166488647461 25)"><text x="46.24166488647461" y="0" font-family="Virgil, Segoe UI Emoji" font-size="20px" fill="#1e1e1e" text-anchor="middle" style="white-space: pre;" direction="ltr" dominant-baseline="text-before-edge">if/else </text><text x="46.24166488647461" y="25" font-family="Virgil, Segoe UI Emoji" font-size="20px" fill="#1e1e1e" text-anchor="middle" style="white-space: pre;" direction="ltr" dominant-baseline="text-before-edge">55241077</text></g><g stroke-linecap="round" transform="translate(10 710) rotate(0 120 60)"><path d="M8.94 58.12 C8.94 58.12, 8.94 58.12, 8.94 58.12 M8.94 58.12 C8.94 58.12, 8.94 58.12, 8.94 58.12 M12.36 66.39 C17.5 65.16, 15.99 59.47, 23.51 53.56 M12.36 66.39 C15.57 60.14, 21.79 56.28, 23.51 53.56 M19.05 70.89 C26.47 61.95, 36.19 54.13, 42.01 44.47 M19.05 70.89 C25.75 66.44, 30.28 58.15, 42.01 44.47 M26.4 74.62 C43.3 57.37, 53.7 45.03, 60.51 35.38 M26.4 74.62 C34.83 67.32, 43.15 55.61, 60.51 35.38 M33.09 79.12 C45.1 67.03, 55.51 52.94, 79.02 26.29 M33.09 79.12 C44.21 66.33, 58.36 48.5, 79.02 26.29 M41.1 82.1 C55.78 68.05, 72.68 52.68, 96.86 17.95 M41.1 82.1 C62.68 59.5, 79.76 38.44, 96.86 17.95 M48.45 85.84 C70.26 54.7, 99.06 30.61, 117.34 6.6 M48.45 85.84 C69.66 59.91, 93.72 32.97, 117.34 6.6 M55.8 89.58 C77.91 67.79, 99.68 38.05, 128.62 5.81 M55.8 89.58 C71.74 71.48, 88.98 50.96, 128.62 5.81 M63.15 93.32 C76.46 72.14, 94.85 54.52, 135.97 9.55 M63.15 93.32 C89.49 67.16, 113.78 39.07, 135.97 9.55 M70.5 97.06 C84.25 82.15, 106.2 56.56, 143.98 12.53 M70.5 97.06 C97.65 68.57, 119.87 41.26, 143.98 12.53 M78.5 100.04 C103.53 68.12, 129.01 36.14, 151.98 15.52 M78.5 100.04 C100.53 75.82, 122.45 51, 151.98 15.52 M85.85 103.78 C109.44 78.59, 136.85 45.73, 159.33 19.25 M85.85 103.78 C114.5 70.11, 142.53 39.12, 159.33 19.25 M93.2 107.52 C110.89 91.74, 125.15 66.86, 166.68 22.99 M93.2 107.52 C122.32 71.11, 151.99 38.79, 166.68 22.99 M100.55 111.26 C122.75 83.4, 144.92 59.34, 173.38 27.49 M100.55 111.26 C119.53 89.09, 136.97 71.58, 173.38 27.49 M108.56 114.24 C134.48 80.77, 160.15 53.3, 180.73 31.23 M108.56 114.24 C129.71 89.14, 150.73 65.12, 180.73 31.23 M116.57 117.23 C129.6 96.7, 147.64 85.05, 188.08 34.97 M116.57 117.23 C140.24 91.33, 164.54 62.78, 188.08 34.97 M125.23 119.46 C148.37 93.08, 166.44 67.94, 195.43 38.7 M125.23 119.46 C142.56 96.76, 162.4 77.99, 195.43 38.7 M143.07 111.12 C154.65 91.07, 175.19 79.84, 202.78 42.44 M143.07 111.12 C166.06 85.13, 186.7 60, 202.78 42.44 M161.58 102.03 C182.7 83.04, 196.98 56.04, 210.13 46.18 M161.58 102.03 C178.56 80.35, 199.45 61.27, 210.13 46.18 M180.08 92.94 C193.06 79.16, 199.89 65.34, 217.48 49.92 M180.08 92.94 C193.44 75.38, 207.54 56.59, 217.48 49.92 M198.58 83.85 C210.16 75.47, 213.8 62.59, 224.82 53.66 M198.58 83.85 C206.8 75.42, 215.73 63.4, 224.82 53.66 M219.71 71.74 C222.07 69.81, 226.21 62.86, 231.52 58.15 M219.71 71.74 C222.93 70.01, 225.61 66.31, 231.52 58.15" stroke="#ffffff" stroke-width="1" fill="none"></path><path d="M151.25 15.25 M151.25 15.25 C172.13 25, 187.19 30.68, 209.75 45.75 M151.25 15.25 C167.6 25.07, 187.01 34.48, 209.75 45.75 M209.75 45.75 C238.77 64.91, 238.85 59.14, 209.75 76.25 M209.75 45.75 C236.35 62.82, 236.92 60.62, 209.75 76.25 M209.75 76.25 C196.31 80.51, 180.73 86.62, 151.25 104.75 M209.75 76.25 C189.54 88.31, 166.39 96.38, 151.25 104.75 M151.25 104.75 C122.67 123.28, 117.53 119.81, 90.75 104.75 M151.25 104.75 C123.39 115.52, 123.01 124.36, 90.75 104.75 M90.75 104.75 C66.6 91.25, 49.44 82.84, 30.25 76.25 M90.75 104.75 C77.16 97.17, 61.34 89.73, 30.25 76.25 M30.25 76.25 C-1.45 62.49, 1.54 63.75, 30.25 45.75 M30.25 76.25 C-3.52 61.46, -3.45 58.98, 30.25 45.75 M30.25 45.75 C48.09 37.95, 74.65 22.78, 90.75 15.25 M30.25 45.75 C53.09 35.03, 75.9 21.87, 90.75 15.25 M90.75 15.25 C118.77 -3.23, 119.54 1.88, 151.25 15.25 M90.75 15.25 C116.86 0.09, 123.74 1.53, 151.25 15.25" stroke="#1e1e1e" stroke-width="2" fill="none"></path></g><g transform="translate(80.09166717529297 745) rotate(0 49.90833282470703 25)"><text x="49.90833282470703" y="0" font-family="Virgil, Segoe UI Emoji" font-size="20px" fill="#1e1e1e" text-anchor="middle" style="white-space: pre;" direction="ltr" dominant-baseline="text-before-edge">if/else </text><text x="49.90833282470703" y="25" font-family="Virgil, Segoe UI Emoji" font-size="20px" fill="#1e1e1e" text-anchor="middle" style="white-space: pre;" direction="ltr" dominant-baseline="text-before-edge">E778DDC1</text></g><g stroke-linecap="round"><g transform="translate(130 70) rotate(0 1.0278413427689088 20.026942998170853)"><path d="M2.83 -0.65 C3.84 5.56, -0.38 16.22, 1.32 36.38 M-0.84 -0.99 C-1.4 15.82, 0.79 33.06, 1.48 41.04" stroke="#1e1e1e" stroke-width="2" fill="none"></path></g><g transform="translate(130 70) rotate(0 1.0278413427689088 20.026942998170853)"><path d="M-4.31 22.34 C-1.77 23.78, -4.11 29.64, 2.8 37.42 M-7.98 22.01 C-5.04 30.16, 0.6 38.62, 2.96 42.09" stroke="#1e1e1e" stroke-width="2" fill="none"></path></g><g transform="translate(130 70) rotate(0 1.0278413427689088 20.026942998170853)"><path d="M9.31 21.02 C8.89 22.71, 3.57 28.86, 2.8 37.42 M5.64 20.69 C3.13 29.18, 3.32 38.18, 2.96 42.09" stroke="#1e1e1e" stroke-width="2" fill="none"></path></g></g><mask></mask><g stroke-linecap="round"><g transform="translate(130.92994635330763 190.988943785429) rotate(0 -0.7457868009805679 19.750970259308815)"><path d="M-3.24 2.22 C3.15 13.03, -2.04 18.41, -2.7 40.71 M-0.3 -1.21 C-0.1 14.88, -1.21 28.99, 1.74 38.03" stroke="#1e1e1e" stroke-width="2" fill="none"></path></g><g transform="translate(130.92994635330763 190.988943785429) rotate(0 -0.7457868009805679 19.750970259308815)"><path d="M-11.57 22.98 C-2.74 27.84, -5.28 27.25, -0.95 38.74 M-8.64 19.55 C-4.91 27.4, -2.36 33.28, 3.49 36.06" stroke="#1e1e1e" stroke-width="2" fill="none"></path></g><g transform="translate(130.92994635330763 190.988943785429) rotate(0 -0.7457868009805679 19.750970259308815)"><path d="M1.89 20.54 C7.2 25.99, 1.12 26.04, -0.95 38.74 M4.82 17.11 C3.69 25.86, 1.36 32.61, 3.49 36.06" stroke="#1e1e1e" stroke-width="2" fill="none"></path></g></g><mask></mask><g stroke-linecap="round"><g transform="translate(130.92994635330774 350.98894378542906) rotate(0 -0.4116746051932978 19.137564554810496)"><path d="M-0.23 2.11 C0.47 9.93, -2.97 21.17, -0.77 38.79 M0.69 -0.52 C-1.27 9.92, 1.03 18.21, 0.62 38.49" stroke="#1e1e1e" stroke-width="2" fill="none"></path></g><g transform="translate(130.92994635330774 350.98894378542906) rotate(0 -0.4116746051932978 19.137564554810496)"><path d="M-6.66 21.88 C-4.57 24.75, -6.36 30.97, -0.14 37.28 M-5.74 19.26 C-6.4 25.36, -2.63 29.2, 1.24 36.97" stroke="#1e1e1e" stroke-width="2" fill="none"></path></g><g transform="translate(130.92994635330774 350.98894378542906) rotate(0 -0.4116746051932978 19.137564554810496)"><path d="M7.02 21.73 C5.89 24.53, 0.88 30.78, -0.14 37.28 M7.94 19.1 C4.42 25, 5.33 28.88, 1.24 36.97" stroke="#1e1e1e" stroke-width="2" fill="none"></path></g></g><mask></mask><g stroke-linecap="round"><g transform="translate(131.98213359713554 512.1435732245445) rotate(0 -0.6098812084554197 20.342088282108307)"><path d="M-0.98 -2.14 C-0.99 12.35, 1.14 22.29, 0.7 42.83 M-0.66 -1.76 C-1.41 13.66, -0.61 30.05, -1.98 40.43" stroke="#1e1e1e" stroke-width="2" fill="none"></path></g><g transform="translate(131.98213359713554 512.1435732245445) rotate(0 -0.6098812084554197 20.342088282108307)"><path d="M-8.48 19.06 C-6.42 26.85, -2.52 30.12, -1.28 43.26 M-8.17 19.45 C-6.59 27.42, -3.81 36.37, -3.96 40.86" stroke="#1e1e1e" stroke-width="2" fill="none"></path></g><g transform="translate(131.98213359713554 512.1435732245445) rotate(0 -0.6098812084554197 20.342088282108307)"><path d="M5.16 20.01 C2.85 27.53, 2.36 30.49, -1.28 43.26 M5.48 20.39 C2.19 28.07, 0.09 36.69, -3.96 40.86" stroke="#1e1e1e" stroke-width="2" fill="none"></path></g></g><mask></mask><g stroke-linecap="round"><g transform="translate(130.92994635330774 670.9889437854291) rotate(0 0.49780974602117567 18.81678592111257)"><path d="M-1.4 0.88 C1.18 13.28, -2.11 27.74, 2.79 39.07 M-0.99 -1.74 C1.88 8.38, -0.78 15.16, -1.8 39.37" stroke="#1e1e1e" stroke-width="2" fill="none"></path></g><g transform="translate(130.92994635330774 670.9889437854291) rotate(0 0.49780974602117567 18.81678592111257)"><path d="M-8.44 21.95 C-4.16 27.18, -5.11 34.45, 1.55 40.36 M-8.05 19.46 C-4.26 25.17, -5.5 27.76, -2.82 40.65" stroke="#1e1e1e" stroke-width="2" fill="none"></path></g><g transform="translate(130.92994635330774 670.9889437854291) rotate(0 0.49780974602117567 18.81678592111257)"><path d="M4.54 22.81 C4.11 27.91, -1.54 34.87, 1.55 40.36 M4.93 20.31 C5.91 25.96, 1.88 28.37, -2.82 40.65" stroke="#1e1e1e" stroke-width="2" fill="none"></path></g></g><mask></mask><g stroke-linecap="round"><g transform="translate(131.41671451342802 830.7530664080995) rotate(358.12889792914245 -0.7438528269635185 20.193553693491538)"><path d="M-0.72 3.47 C-0.38 13.26, -4.64 25.58, -1.56 41 M1.02 -0.61 C1.98 7.14, -1.31 13.87, -1.21 36.89" stroke="#1e1e1e" stroke-width="2" fill="none"></path></g><g transform="translate(131.41671451342802 830.7530664080995) rotate(358.12889792914245 -0.7438528269635185 20.193553693491538)"><path d="M-7.78 22 C-4.91 25.43, -6.42 31.18, -0.78 39.54 M-6.11 18.08 C-3.82 21.85, -5.4 24.57, -0.46 35.6" stroke="#1e1e1e" stroke-width="2" fill="none"></path></g><g transform="translate(131.41671451342802 830.7530664080995) rotate(358.12889792914245 -0.7438528269635185 20.193553693491538)"><path d="M5.3 22.48 C3.87 25.57, -1.95 31.17, -0.78 39.54 M6.97 18.57 C6.61 22.13, 2.39 24.75, -0.46 35.6" stroke="#1e1e1e" stroke-width="2" fill="none"></path></g></g><mask></mask><g stroke-linecap="round" transform="translate(30 870) rotate(0 110 30)"><path d="M0 0 C0 0, 0 0, 0 0 M0 0 C0 0, 0 0, 0 0 M1.69 12.7 C1.83 10.35, 6.91 5.92, 9.57 1.83 M1.69 12.01 C2.28 9.48, 7.05 5.8, 9.27 0.71 M-0.92 21.58 C2.26 19.33, 9 8.4, 22.56 0.1 M-1.27 25.21 C6.3 15.69, 11.73 8.65, 20.17 -0.16 M2.57 40.36 C12.78 21.4, 24.94 10.22, 32.05 2.44 M0.9 38.06 C10.32 29.28, 15.63 16.87, 31.68 -0.35 M-3.53 47.67 C13.53 30.44, 36.65 13.51, 39.33 1.38 M1.61 50.29 C10.05 36.48, 20.76 24, 44.2 1.05 M0.83 57.04 C12.51 43.33, 31.48 25.58, 49.4 0.51 M0.36 59.86 C16.14 43.46, 31.65 23.48, 51.25 0.48 M8.34 59.02 C28.18 38.43, 52.51 18.99, 60.69 0.99 M10.59 61.9 C27.08 41.09, 46.72 20.67, 64.12 1.08 M18.07 63.59 C31.66 40.61, 49.01 32.2, 71.04 3.56 M20.52 60.11 C38.65 42.95, 51.22 25.22, 72.91 -0.28 M30.4 60.98 C40.87 47.67, 51.45 37.31, 83.78 2.51 M30.97 60.63 C50.5 41.38, 64.47 22.16, 83.48 -2 M43.12 58.99 C56.01 43.61, 68.91 30.37, 97.64 3.68 M42.58 58.29 C55.53 44.63, 72.25 25.35, 94.47 1.21 M56.82 61.71 C70.91 33.83, 97.74 11.22, 104.8 2.51 M52.06 60.4 C72.77 37.18, 92.69 16.35, 106.31 1.4 M67.49 60.56 C77.83 48.13, 90.8 33.03, 120.21 2.71 M63.92 62.73 C83.01 39.51, 100.59 16.8, 117.55 1.05 M76.59 56.77 C91.07 42.17, 105.13 25.43, 126.25 -0.67 M75.46 61.04 C89.43 43.64, 99.39 32.04, 128.49 1.13 M83.67 60.38 C104.18 40.73, 116.84 22.33, 138.74 1.21 M84.41 59.02 C102.04 41.84, 118.97 21.42, 138.25 0.56 M91.73 60.99 C109.96 47.04, 123.99 26.24, 151.61 -1.97 M97.29 60.13 C107.51 46.18, 123.69 31.96, 148.38 0.25 M105.18 61.77 C122.9 43.73, 134.34 22.77, 158.24 3.02 M106.41 62.5 C118.62 49.36, 132.37 33.91, 159.22 -1.18 M119.89 57.45 C132.26 34.97, 150.63 15.77, 173.41 -1.04 M118.85 62.01 C132.41 43.35, 147.83 26.73, 170.87 -0.38 M129.18 60.32 C144.11 35.66, 167.19 13.46, 183.38 -3.8 M129.47 59.25 C139.17 48.04, 151.34 34.69, 180.23 1.69 M137.77 62.24 C157.78 43.33, 173.02 21.4, 191.82 2.68 M137.92 58.52 C149.43 47.14, 160.87 33.61, 189.98 -1.19 M151.85 60.61 C165.49 42.7, 172.6 23.85, 201.84 1.85 M149.63 58.85 C160.11 45.4, 172.69 31.27, 201.57 -1.52 M161.02 60.42 C171.1 44.6, 186.21 27.93, 214 2.77 M160.8 60.99 C174.99 44.54, 190.68 26.24, 212.25 0.91 M168.35 60.21 C184.4 40.41, 206.37 15.51, 222.98 3.55 M171.42 62.4 C181.25 48.44, 190.97 36.5, 222.73 -0.45 M180.33 62.08 C188.42 50.08, 204.63 33.08, 218.32 15.41 M182.27 60.26 C193.3 47.91, 206.94 33.51, 220.93 14.1 M188.87 57.7 C206.07 49.31, 212.85 33.31, 222.09 29.51 M191.89 58.48 C197.87 49.3, 208.13 39.88, 222.62 26.37 M201.35 62.3 C206.86 52.6, 213.8 48.99, 220.58 41.14 M201.63 58.67 C207.25 52.91, 212.91 46.46, 222.17 37.44 M213.99 60.54 C217.22 57.23, 216.26 58.06, 220.21 49.32 M212.59 59.5 C215.29 56.57, 218.6 52.99, 222.44 48.59" stroke="#ff8787" stroke-width="1" fill="none"></path><path d="M-1.89 2.67 C44.94 -2.55, 92.86 -0.67, 219.54 -2.34 M0.82 -1.56 C53.77 2.42, 108.05 0.51, 218.34 0.48 M219.9 2.24 C218.42 22.81, 221.7 44.15, 219.86 56.33 M219.85 0.44 C220.22 14.02, 220.52 27.02, 219.1 61.7 M219.65 60.21 C170.4 59.51, 114.98 53.96, -1.48 59.25 M220.09 60.98 C164.67 58.5, 110.53 57.07, 1.22 59.07 M2.36 59.26 C-4.17 39.79, -2.49 15.26, -2.87 1.95 M1.52 58.91 C1.8 37.9, -0.28 14.94, 0.84 -0.64" stroke="#1e1e1e" stroke-width="2" fill="none"></path></g><g transform="translate(99.74166488647461 887.5) rotate(0 40.25833511352539 12.5)"><text x="40.25833511352539" y="0" font-family="Virgil, Segoe UI Emoji" font-size="20px" fill="#1e1e1e" text-anchor="middle" style="white-space: pre;" direction="ltr" dominant-baseline="text-before-edge">REVERT</text></g><g stroke-linecap="round"><g transform="translate(241.53843047808164 153.87461572736223) rotate(0 43.52336590195421 -1.3629947250272707)"><path d="M0.01 2.33 C24.79 -3.15, 53.92 -0.04, 87.04 -5.05 M0.59 -0.63 C23.62 -2.16, 50.45 0.33, 86.69 -2.79" stroke="#1e1e1e" stroke-width="2" fill="none"></path></g><g transform="translate(241.53843047808164 153.87461572736223) rotate(0 43.52336590195421 -1.3629947250272707)"><path d="M59.08 11.23 C65.81 1.99, 76.74 2.18, 86.27 -5.75 M59.66 8.28 C65.68 3.78, 75.48 3.54, 85.93 -3.48" stroke="#1e1e1e" stroke-width="2" fill="none"></path></g><g transform="translate(241.53843047808164 153.87461572736223) rotate(0 43.52336590195421 -1.3629947250272707)"><path d="M58.02 -9.26 C64.75 -12.25, 76 -5.83, 86.27 -5.75 M58.6 -12.22 C64.86 -10.88, 74.96 -5.29, 85.93 -3.48" stroke="#1e1e1e" stroke-width="2" fill="none"></path></g></g><mask></mask><g stroke-linecap="round"><g transform="translate(246.94251693247452 294.6627367241077) rotate(0 41.243134732252884 -1.8311039411030947)"><path d="M-1.39 -2.96 C26.12 -1.98, 54.12 3.3, 83.88 -3.68 M-1.21 -0.71 C28.79 -1.65, 54.02 0.77, 81.11 -0.24" stroke="#1e1e1e" stroke-width="2" fill="none"></path></g><g transform="translate(246.94251693247452 294.6627367241077) rotate(0 41.243134732252884 -1.8311039411030947)"><path d="M51.6 7.26 C61.07 4.54, 71.14 6.54, 82.93 -3.33 M51.79 9.51 C63.95 5.82, 71.37 4.98, 80.17 0.11" stroke="#1e1e1e" stroke-width="2" fill="none"></path></g><g transform="translate(246.94251693247452 294.6627367241077) rotate(0 41.243134732252884 -1.8311039411030947)"><path d="M51.46 -13.26 C61.22 -9.16, 71.33 -0.34, 82.93 -3.33 M51.64 -11.01 C63.95 -7.93, 71.43 -2, 80.17 0.11" stroke="#1e1e1e" stroke-width="2" fill="none"></path></g></g><mask></mask><g stroke-linecap="round"><g transform="translate(230 470) rotate(0 50.331266671419144 -6.955424823807334)"><path d="M3.85 -1.89 C38.69 -1.78, 74.04 -5.21, 99.84 -15.42 M0.82 1.51 C36.4 -0.69, 75.62 -8.61, 98.41 -12.97" stroke="#1e1e1e" stroke-width="2" fill="none"></path></g><g transform="translate(230 470) rotate(0 50.331266671419144 -6.955424823807334)"><path d="M76.48 0.48 C83.38 -0.96, 90.76 -5.85, 100.07 -16.83 M73.45 3.88 C81.09 -1.17, 92.34 -10.55, 98.63 -14.38" stroke="#1e1e1e" stroke-width="2" fill="none"></path></g><g transform="translate(230 470) rotate(0 50.331266671419144 -6.955424823807334)"><path d="M72.65 -19.68 C80.89 -13.33, 89.75 -10.43, 100.07 -16.83 M69.62 -16.29 C78.5 -13.46, 91.22 -15.06, 98.63 -14.38" stroke="#1e1e1e" stroke-width="2" fill="none"></path></g></g><mask></mask><g stroke-linecap="round"><g transform="translate(238.5645894537364 616.8357392618817) rotate(0 45.465686717132996 -2.326428885276016)"><path d="M2.78 0.27 C18.01 2.88, 37.8 -0.92, 92.66 -4.14 M-1.73 -0.85 C21.03 1.09, 45.06 -1.93, 89.63 -5.79" stroke="#1e1e1e" stroke-width="2" fill="none"></path></g><g transform="translate(238.5645894537364 616.8357392618817) rotate(0 45.465686717132996 -2.326428885276016)"><path d="M65.25 7.21 C66 7.81, 71.43 2.39, 91.86 -4.32 M60.74 6.09 C67.73 5.26, 75.98 0.48, 88.83 -5.97" stroke="#1e1e1e" stroke-width="2" fill="none"></path></g><g transform="translate(238.5645894537364 616.8357392618817) rotate(0 45.465686717132996 -2.326428885276016)"><path d="M63.42 -13.23 C64.93 -7.98, 70.77 -8.76, 91.86 -4.32 M58.91 -14.35 C66.36 -10.05, 75.07 -9.74, 88.83 -5.97" stroke="#1e1e1e" stroke-width="2" fill="none"></path></g></g><mask></mask><g stroke-linecap="round"><g transform="translate(230 770) rotate(0 48.116176187992096 -2.6794201603303236)"><path d="M-3.33 -1.04 C27.87 0.83, 54.9 -1.68, 99.56 -0.2 M1.15 -0.49 C24.72 -2.11, 54.13 -3.18, 98.65 -5.15" stroke="#1e1e1e" stroke-width="2" fill="none"></path></g><g transform="translate(230 770) rotate(0 48.116176187992096 -2.6794201603303236)"><path d="M67.61 5.27 C78.96 6.35, 86.16 1.79, 99.21 -1.23 M72.08 5.83 C76.71 3.1, 87.31 0.1, 98.3 -6.18" stroke="#1e1e1e" stroke-width="2" fill="none"></path></g><g transform="translate(230 770) rotate(0 48.116176187992096 -2.6794201603303236)"><path d="M66.72 -15.23 C78.32 -8.47, 85.77 -7.31, 99.21 -1.23 M71.19 -14.68 C76.45 -12, 87.3 -9.6, 98.3 -6.18" stroke="#1e1e1e" stroke-width="2" fill="none"></path></g></g><mask></mask><g stroke-linecap="round" transform="translate(330 250) rotate(0 110 30)"><path d="M0 0 C0 0, 0 0, 0 0 M0 0 C0 0, 0 0, 0 0 M1.44 13.36 C1.96 9.31, 8.13 2.44, 10.49 0.81 M0.43 11.41 C3.61 8.08, 5.32 4.64, 11.94 0.91 M-0.86 20.96 C4.2 15.15, 17.76 2.64, 17.8 -0.68 M-1.28 23.08 C5.82 16.48, 13.31 7.82, 22.31 -1.45 M0.68 33.84 C12.41 26.87, 24.25 11.86, 32.45 -2.87 M0.61 37.85 C11.4 23.46, 23.97 10.89, 33.04 -1.05 M0.9 48.49 C8.49 38.84, 23.82 21.3, 43.7 -2.92 M0.1 47.71 C15.72 32.28, 28.17 12.03, 40.55 0.04 M2.61 62.04 C12.5 40.61, 32.43 26.51, 52.39 -0.79 M2.52 61.14 C22.43 37.03, 40.87 16.33, 52.64 -0.68 M13.35 58.46 C23.88 45.57, 40.96 30.13, 64.96 -0.98 M10.12 59.8 C28.97 42.53, 47.5 20.21, 63.84 -0.94 M19.19 63.08 C35.01 41.77, 54.65 24.54, 71.36 1.42 M20.84 60.04 C36.33 43.82, 52.31 24.84, 74.38 -0.69 M31.6 59.32 C54.44 35.83, 68.54 17.46, 87.15 2.8 M32.17 60.65 C48.09 43.06, 62.96 22.4, 85.25 -1.1 M39.64 62.04 C54.4 41.63, 65.37 32.82, 99.43 -3.05 M42.32 59.22 C54.85 43.92, 70.69 27.23, 97.12 0.45 M51.24 60.3 C71.99 37.46, 92.39 14.23, 108.86 -2.89 M52.58 61.88 C72.3 37.38, 92.26 14.29, 105.38 -0.65 M65.88 60.33 C78.97 44.94, 91.23 29.07, 115.02 2.71 M64.9 61.24 C84.35 40.15, 100.41 20.21, 114.51 1.54 M72.65 64.06 C96.11 39.24, 111.72 13.87, 129.01 2.36 M73 62.01 C89.98 41.34, 105.91 23.82, 127.66 1.46 M86.82 64.12 C101.6 35.18, 126.11 19.23, 139.53 0.36 M83.97 58.88 C103.74 37.97, 125.16 13.67, 137.73 -0.4 M95.25 58.54 C118.21 41.4, 132.34 16.9, 149.49 3.72 M96.61 62.34 C107.13 46.11, 119.92 34.89, 148.98 0.49 M106.36 56.83 C121.19 48.71, 131.61 31.78, 161.37 -3.16 M104.45 59.67 C118.28 45.95, 128.37 35.11, 159.43 -1.56 M120.13 61.91 C126.92 45.14, 141.88 35.67, 171.22 3.61 M118.74 59.91 C133.71 42, 150.51 22.13, 167.78 -1.49 M130.09 60.15 C144.26 43.7, 157.62 18.25, 178.63 -2.68 M127.44 58.9 C144.11 40.29, 161.09 21.94, 180.47 1.58 M141.36 59.34 C157.3 42.13, 175.39 25.9, 188.78 2.71 M138.24 60.25 C155.27 39.77, 174.11 19.03, 190.64 1.29 M148.59 62.73 C166.06 35.53, 185.96 17.06, 198.38 -2.04 M149.52 60.37 C161.97 46.19, 175.85 31.43, 201.17 1.07 M162.02 58.99 C167.36 49.01, 185.04 30.15, 213.74 0.69 M161.43 61.42 C169.67 47.04, 184.73 34.41, 211.64 -0.88 M169.43 60.25 C188.87 38.44, 198.28 23.44, 219.39 3.45 M170.79 60.36 C188.86 39.98, 204.3 22.63, 220.06 2.95 M178.18 60.05 C196.83 45.65, 211.6 24.35, 222.88 9.8 M182.15 61.94 C193.21 46.22, 207.95 30.39, 220.57 12.39 M193.19 63.39 C203.1 50.38, 215.24 36.94, 224.37 29.1 M190.81 59.66 C200.59 50.72, 209.82 39.68, 222.11 25.41 M202.94 60.68 C209 53.71, 213.26 46.02, 224.4 40.71 M201.75 60.85 C210.09 50.86, 216.2 42.85, 221.13 37.35 M213.2 58.55 C218.02 55.81, 221.02 51.36, 219.89 52.31 M212.66 59.78 C217.22 56, 218.79 52.58, 221.82 50.84" stroke="#ffec99" stroke-width="1" fill="none"></path><path d="M-1.77 0.2 C56.16 -1.89, 117.64 -1.6, 221.73 -0.67 M1.2 -0.88 C60.12 0.96, 118.03 -0.39, 218.29 1.51 M222.88 0.04 C217.76 15.52, 217.86 22.27, 220.87 56.89 M220.01 1.68 C220.77 23.04, 219.67 45.3, 219.19 59.5 M219.93 58.16 C156.79 60.72, 102.87 58.72, -3.44 57.02 M221.41 60.77 C152.91 58.71, 84.64 59.27, -0.53 61.25 M-3.52 56.23 C-0.45 41.56, -0.31 14.8, -3.05 -0.34 M0.28 59.38 C0.39 37.72, -1.44 14.42, 1.09 1.34" stroke="#1e1e1e" stroke-width="2" fill="none"></path></g><g transform="translate(390.7249984741211 267.5) rotate(0 49.275001525878906 12.5)"><text x="49.275001525878906" y="0" font-family="Virgil, Segoe UI Emoji" font-size="20px" fill="#1e1e1e" text-anchor="middle" style="white-space: pre;" direction="ltr" dominant-baseline="text-before-edge">getValue()</text></g><g stroke-linecap="round" transform="translate(330 410) rotate(0 110 30)"><path d="M0 0 C0 0, 0 0, 0 0 M0 0 C0 0, 0 0, 0 0 M-2.31 13.37 C2.22 6.19, 4.98 3.77, 10.47 -2.27 M0.11 11.68 C4.36 8.42, 8.42 3.96, 10.32 1.44 M2.38 27.16 C5.38 15.95, 10.35 11.5, 22.36 -1.66 M0.48 23.26 C6.68 14.54, 15.66 5.96, 22.25 -1.18 M3.5 34.14 C5.85 32.62, 10.1 19.7, 30.21 -3 M1.19 37.64 C10.01 28.23, 16.89 16.81, 31.65 -0.93 M2.44 46.37 C17.49 32.41, 25.21 15.68, 44.7 -2.67 M-1.04 48.62 C10.73 36.04, 25 24.46, 42.31 0.98 M-0.59 62.54 C18.12 41.59, 29.22 26.65, 54.13 2.95 M-1.1 61.37 C19.03 41.11, 36.54 19.99, 54.82 1.76 M13.4 62.19 C28.01 41.97, 43.55 19.61, 66.36 -1.09 M12.05 61.29 C25.71 45.63, 36.32 31.92, 65.5 -1.6 M23.92 60.19 C35.38 47.77, 45 32.11, 70.8 -2.3 M22.12 59.43 C41.05 38.45, 56.23 19.21, 73.36 0.67 M33.88 63.54 C50.25 33.6, 73.75 16.37, 88.42 -2.75 M33.37 60.32 C44.81 42.98, 57.38 29.25, 83.15 0.12 M45.76 56.67 C59.14 39.55, 83.14 12.25, 93.77 2.93 M43.82 58.26 C51.53 46.58, 63.57 36.81, 96.34 -0.91 M54.95 64.19 C63.29 49.17, 72.84 39.59, 104.96 1.53 M51.52 59.09 C67.12 44.58, 82.72 29.15, 106.1 -0.32 M62.37 57.9 C84.97 40.57, 99.95 17.09, 112.98 0.05 M64.2 62.16 C75.98 47.99, 85.17 35.81, 115.69 1.56 M72.51 63.29 C91.67 41.39, 104.29 23.27, 126.39 -3.33 M74.37 61.87 C94.09 39.38, 111.23 19.1, 128.03 -0.12 M82.12 58.55 C93.2 46.68, 104.16 38.25, 137.32 -0.76 M84.9 61.65 C99.62 43.69, 115.65 24.39, 136.81 -1.14 M97.47 61.27 C108.87 37.78, 129.96 25.08, 150.12 -3.68 M95.38 59.71 C108.7 44.83, 123.3 28.33, 148.09 1.74 M104.44 62.53 C119.4 44.86, 131.43 35.8, 158.7 3.91 M105.11 62.03 C118.71 45.88, 127.52 32.44, 158.63 0.54 M118.42 56.8 C135.31 39.85, 153.85 22.66, 172.55 -0.57 M116.11 59.38 C134.57 42.47, 149.47 21.39, 170.95 1.06 M130.41 64.02 C144.51 36.12, 164.52 17.53, 178.71 -0.26 M128.15 60.33 C146.77 38.37, 163.32 19.8, 180.25 -0.12 M140.93 63.55 C158.92 40.03, 178.27 17.92, 191.78 3.16 M137.67 60.2 C151.4 46.91, 162.4 34.39, 189.45 1.37 M146.1 64.2 C166.47 42.35, 175.32 25.68, 199.92 3.41 M148.86 62.1 C162.04 46.13, 177.67 30.19, 200.23 -1.33 M155.58 62.2 C180.62 41.6, 193.2 25.16, 214.87 3.68 M160.63 61.93 C173.94 43.05, 186.58 28, 211.94 -1.28 M170.6 63.23 C190.37 40.36, 204.66 23.2, 224.6 0.09 M169.59 61.37 C183.06 48.92, 193.96 36.78, 219.36 0.72 M177.95 56.41 C188.58 51.77, 203.46 35.65, 222.1 9.75 M181.08 60.87 C198.11 42.14, 211.62 24.95, 222.43 15.22 M191.99 60.29 C201.91 48.67, 214.17 38.71, 222.96 25.58 M192.16 60.68 C198.55 52.71, 208.05 42.7, 220.85 25.94 M200.62 56.86 C209.03 53.61, 215.93 50.74, 225.16 36.52 M202.6 61.82 C207.87 53.88, 216.73 45.15, 222.88 36.91 M214.52 61.17 C214.44 57.56, 216.22 54.48, 220.72 47.76 M213.52 59.44 C215.43 58.39, 218.57 53.81, 221.57 50.59" stroke="#ffec99" stroke-width="1" fill="none"></path><path d="M-3 -0.53 C70.27 -0.03, 134.88 0.12, 218.27 -3.42 M0.91 -1.2 C69.49 0.38, 136.36 0.79, 218.68 0.76 M220.56 -2.77 C223.49 22.18, 221.79 43.9, 221.94 60.13 M221.15 -0.95 C219.64 18.83, 218.65 38.36, 219.79 58.81 M221.02 57.59 C146.88 60.37, 69.65 57.3, -2.09 62.05 M218.29 60.15 C137.7 59.22, 54.09 59.32, 0.79 58.75 M-0.76 59.38 C2.55 46.39, -0.86 36.92, 1.87 3.78 M-0.51 59.49 C-1.55 42.08, 1.2 27.83, -0.85 -0.35" stroke="#1e1e1e" stroke-width="2" fill="none"></path></g><g transform="translate(370.2416687011719 427.5) rotate(0 69.75833129882812 12.5)"><text x="69.75833129882812" y="0" font-family="Virgil, Segoe UI Emoji" font-size="20px" fill="#1e1e1e" text-anchor="middle" style="white-space: pre;" direction="ltr" dominant-baseline="text-before-edge">value (getter)</text></g><g stroke-linecap="round" transform="translate(330 570) rotate(0 110 30)"><path d="M0 0 C0 0, 0 0, 0 0 M0 0 C0 0, 0 0, 0 0 M-1.63 11.88 C3.03 8.66, 6.08 5, 8.1 -2.79 M-1.1 12.43 C2.07 9.21, 5.86 3.15, 9.13 0.68 M3.88 20.55 C7.14 13.01, 14.24 3.7, 21.66 -2.24 M1 24.39 C6.94 14.45, 14.88 6.17, 20.16 0.82 M-0.53 34.12 C10.76 25.06, 21.09 7.9, 28.62 -1.05 M-0.49 38.85 C9.07 27.63, 17.31 18.42, 32.73 -0.7 M-1.01 46.61 C12.98 36.23, 25.35 22.75, 40.28 3.77 M0.96 50.83 C7.46 39.75, 19.31 28.07, 43.02 -1.8 M0.89 59.22 C15.73 41.43, 36.2 15.23, 52 -0.56 M0.64 59.47 C18.6 40.81, 34.05 16.87, 54.35 1.13 M12.2 62.08 C27.47 34.58, 45.95 18.65, 64.58 -1.24 M9.83 59.09 C27.75 39.61, 45.12 23.47, 61.84 0.44 M18.39 60.83 C40.23 44.23, 53.39 18.76, 74.27 2.06 M20.55 58.6 C39.71 38.16, 57.97 20.73, 73.39 0.19 M34.2 61.3 C48.99 37.18, 75.08 13.34, 86.74 -0.72 M31.43 59.29 C52.65 41.78, 67.87 19.19, 86.67 -0.86 M43.81 58.92 C63.86 37.85, 80.23 17.46, 99.11 -4.1 M42.92 61.2 C56.9 46.57, 67.1 34.98, 94.14 -2.21 M54.18 57.42 C67.82 41.08, 81.81 25.05, 105.93 -1.06 M53.56 58.83 C70.91 40.36, 87.55 21.41, 108.04 1.37 M63.67 59.83 C76.32 44.38, 85.82 31.12, 112.53 3.77 M63.65 61.13 C78.59 43.44, 93.88 22.36, 116.73 -0.45 M72.11 59.02 C88.35 47.37, 97.79 34.29, 127.66 1.05 M76.31 59.04 C90.47 43.09, 103.1 26.85, 128.34 -1.52 M81.44 60.63 C106.9 42.74, 117.11 18.66, 141.52 -0.74 M85.09 61.46 C100.24 43.3, 116.99 24.52, 135.77 0.28 M93.02 61.92 C109.78 45.1, 125.35 26.87, 150.41 -0.31 M94.32 59.01 C106.14 45.32, 120.29 31.87, 148.41 -0.96 M105.65 61.65 C128 43.26, 142.06 21.16, 162.08 -0.8 M108.12 59.03 C121.53 45.96, 135.04 29.74, 160.39 0.57 M113.57 62.2 C134.27 36.9, 154.4 17.51, 169.71 0.19 M115.38 60.58 C134.81 40.2, 151.29 21.03, 167.64 1.4 M128.46 63.47 C145.51 38.98, 168.34 12.75, 181.91 -3.34 M126.78 61.43 C142.53 41.85, 157.69 26.4, 180.87 -0.24 M137.43 56.94 C149.39 44.37, 164.72 30.32, 188.72 0.13 M139.77 61.07 C154.61 41.86, 167.45 25.32, 190.58 -1.37 M149.05 59.66 C162.57 50.13, 173.23 33.37, 199.65 1.72 M147.6 59.73 C166.2 38.68, 184.2 17.71, 200.02 0.69 M159.29 60.22 C177.27 44.23, 189.99 18.72, 209.62 -1.92 M160.29 61.34 C174.81 41.35, 186.9 25.97, 210.25 -0.66 M173.59 60.8 C182.84 48.47, 191.05 37.12, 219.69 2.97 M169.63 60.54 C185.89 41.8, 203.96 22.55, 219.79 3.2 M180.8 63.12 C194.96 46.96, 206.4 28.98, 221.77 15.21 M182.22 61.7 C194.77 43.96, 208.55 28.6, 220.39 13.18 M191.24 62.48 C203.66 54.45, 206.86 42.94, 220.31 25.62 M192.41 61.93 C200.63 50.3, 210.05 37.49, 221.62 26.26 M202.65 57.72 C209.81 50.55, 213.55 41.94, 219.97 41.08 M203.36 62.01 C208.11 51.61, 217.88 44.34, 221.66 36.73 M213.72 60.96 C214.58 54.72, 216.96 53.46, 223.95 51.38 M212.17 61.12 C214.4 56.04, 219.6 52.05, 221.57 48.91" stroke="#ffec99" stroke-width="1" fill="none"></path><path d="M0.95 0.84 C70.58 -0.87, 138.26 -2.02, 221.47 2.26 M-0.09 -1.61 C79.15 1.47, 156.37 2.4, 220.87 -1.4 M223.99 0.58 C219.6 17.35, 221.54 42.46, 216.02 58.4 M220.85 -1.9 C221.08 13.01, 218.67 22.65, 220.91 60.17 M219.81 59.73 C161.37 64.58, 99.6 62.15, 0.9 62.82 M218.86 61.31 C160.51 56.9, 98.93 57.88, 1.68 59.78 M-3.72 56.1 C-2.12 39.5, -1 22.66, 1.49 -2.97 M1 60.22 C-0.93 43.31, -0.18 23.13, 1.74 -0.57" stroke="#1e1e1e" stroke-width="2" fill="none"></path></g><g transform="translate(352.40833282470703 587.5) rotate(0 87.59166717529297 12.5)"><text x="87.59166717529297" y="0" font-family="Virgil, Segoe UI Emoji" font-size="20px" fill="#1e1e1e" text-anchor="middle" style="white-space: pre;" direction="ltr" dominant-baseline="text-before-edge">setValue(uint256)</text></g><g stroke-linecap="round" transform="translate(330 730) rotate(0 110 30)"><path d="M0 0 C0 0, 0 0, 0 0 M0 0 C0 0, 0 0, 0 0 M-2.69 10.66 C1.29 6.74, 3.88 6.58, 8.89 2.28 M0.38 11.27 C3.26 7.22, 7.37 2.92, 11.34 0.99 M-2.49 22.92 C7.01 15.87, 8.27 9.43, 20.32 -1.91 M2.24 25.13 C6.31 18.37, 12.47 11.21, 20.67 -0.69 M-2.56 39.1 C11.82 26.89, 23.04 8.28, 35.8 -3.63 M1.65 35.99 C12.54 25.22, 22.78 10.54, 30.23 0.95 M-1.11 46.07 C17.34 30.8, 27.38 13.34, 42.14 1.37 M-0.85 49.8 C16.1 30.08, 27.72 15.22, 43.83 0.86 M2.58 58.03 C11.89 39.72, 32.9 24.37, 52.11 0.21 M-0.41 59.99 C12.57 45.9, 29.02 27.06, 53.8 0.49 M11.99 62.02 C35.89 35.32, 50.8 14.34, 66.09 1.43 M9.76 60.2 C26.31 42.51, 45.79 22.3, 64.21 1.08 M23.13 56.42 C32.44 49.95, 41.9 35.43, 73.97 1.03 M21.12 61.73 C34.81 47.45, 43.27 37.01, 73.82 0.66 M31.41 63.7 C51.36 38.56, 72.01 16.86, 81.25 -3.57 M33.69 61.36 C43.49 47.27, 56.34 32.71, 83.14 -0.99 M39.82 59.81 C51.61 45.67, 63.75 31.8, 94.96 0.51 M41.23 61.64 C61.76 38.67, 81.85 16.86, 97.38 -1.26 M52.24 60.86 C71.28 34.87, 92.61 12.52, 109.7 -0.44 M53.54 60.67 C72.75 38.53, 88.65 17.59, 105.47 -1.81 M62.09 62.14 C77.15 45.4, 90.69 32.34, 116.99 0.08 M62.11 62.03 C82.23 37.28, 101.94 19.12, 114.41 1.27 M74.37 64.65 C94.01 38.66, 107.31 27.54, 125.86 -0.27 M75.2 60.39 C87.49 46.9, 99.18 28.4, 126.88 -0.6 M86.32 62.07 C103.02 44.05, 118.34 21.62, 136.96 -2.1 M83.41 59.41 C103.55 39.32, 124.02 16.88, 136.3 1.05 M96.72 63.51 C109.44 47.64, 118.48 39.29, 147.13 -1.38 M94.1 61.57 C109.17 46.05, 121.17 32.29, 148.5 1.69 M107.93 59.53 C125.35 37.71, 148.66 15.06, 158.79 1.39 M106.31 61.09 C120.86 43.68, 136.72 24.73, 159.99 1.6 M119.86 60.11 C137.28 40.66, 153.03 16.78, 165.91 -0.86 M117.82 61 C129.53 45.07, 145.5 27.49, 169.02 -1.16 M124 60.69 C145.95 40.32, 166.52 11.31, 180.05 0.23 M128.13 62.1 C147.22 35.29, 168.88 13.6, 178.56 -1.77 M137.38 64.12 C158.02 43.3, 171.58 17.25, 192.3 2.47 M137.46 59.97 C157.66 37.21, 177.97 14.65, 191.28 0.39 M148.61 62.72 C170.87 36.69, 183.7 13.44, 199.33 -0.91 M149.73 61.98 C164.5 38.21, 183.97 16.32, 200.59 -1.28 M159.85 60.21 C171.83 43.55, 184.63 33.67, 213.37 0.77 M159.59 60.27 C176.45 42.7, 192.96 19.96, 213.61 0.38 M172.84 61.79 C186.73 42.75, 198.83 25.57, 222.9 3.15 M171.42 60.77 C185.92 41.28, 202.71 21.28, 220.86 0.86 M182.86 64.06 C192.69 49.24, 199.12 39.14, 221.39 14.82 M182.31 60.19 C197.58 41.61, 211.54 24.87, 222.04 14.94 M188.76 61.07 C200.05 45.93, 209.79 35.48, 224.95 28.21 M193.06 59.02 C198.09 52.85, 206.34 43.22, 220.6 26.58 M202.97 58.33 C203.68 51.92, 211.56 53.04, 224.06 39.75 M203.2 58.52 C208.86 52.59, 216.17 42.4, 220.53 36.09 M213.21 62 C216.9 58.09, 220.31 50.81, 219.67 52.23 M213.56 61.3 C215.33 58.56, 217.85 54.05, 222.33 50.28" stroke="#ffec99" stroke-width="1" fill="none"></path><path d="M0.5 0.38 C48.6 -1.74, 103.91 -7.25, 218.62 -3.41 M-1.65 0.84 C68.74 -2.88, 134.56 -0.84, 220.15 -0.33 M219.69 3.71 C222.8 20.85, 220 35.18, 223.26 58.98 M221.51 1.03 C218.4 16.13, 219.54 34.9, 219.75 60.59 M216.62 57.96 C157.64 55.38, 98.44 57.74, -2.57 60.1 M220.19 58.81 C163.34 61.36, 103.65 63.41, -0.5 58.68 M-0.84 57.83 C0.02 36.71, 1.22 18.55, -2.86 -0.05 M1.79 59.52 C-0.98 45.19, -1.72 26.42, 0.22 1.06" stroke="#1e1e1e" stroke-width="2" fill="none"></path></g><g transform="translate(351.2249984741211 747.5) rotate(0 88.7750015258789 12.5)"><text x="88.7750015258789" y="0" font-family="Virgil, Segoe UI Emoji" font-size="20px" fill="#1e1e1e" text-anchor="middle" style="white-space: pre;" direction="ltr" dominant-baseline="text-before-edge">getInternalValue()</text></g></svg>